<?xml version="1.0" encoding="utf-8"?><svg viewBox="0 0 502.66 502.66" xmlns="http://www.w3.org/2000/svg" xmlns:xlink="http://www.w3.org/1999/xlink"><style>:root>svg{display:none}:root>svg:target{display:block}</style><svg viewBox="0 0 502.664 502.664" id="icon" xmlns="http://www.w3.org/2000/svg"><path d="M153.821 358.226L0 274.337v-46.463l153.821-83.414v54.574L46.636 250.523l107.185 53.431v54.272zm26.273 29.358L282.103 115.08h32.227L212.084 387.584h-31.99zm168.749-29.358v-54.272l107.164-52.999-107.164-52.59v-53.927l153.821 83.522v46.183l-153.821 84.083z"/></svg><svg viewBox="0 0 31.424 31.425" id="ring" xmlns="http://www.w3.org/2000/svg"><path d="M15.712 3.132c6.937 0 12.581 5.644 12.581 12.58 0 6.938-5.645 12.581-12.581 12.581-6.937 0-12.58-5.645-12.58-12.581 0-6.937 5.643-12.58 12.58-12.58m0-3.132C7.035 0 0 7.034 0 15.712c0 8.679 7.035 15.713 15.712 15.713s15.712-7.034 15.712-15.713C31.425 7.034 24.389 0 15.712 0z"/></svg></svg>